<svg width="67" height="121" viewBox="0 0 67 121" fill="none" xmlns="http://www.w3.org/2000/svg">
<path d="M10.0852 71.4318V65.75L55.8239 42.4545V51.5455L20.7386 68.4489L21.0227 67.8807V69.3011L20.7386 68.733L55.8239 85.6364V94.7273L10.0852 71.4318Z" fill="black"/>
<path d="M24.2375 51.0529L24.019 50.6382L26.9146 49.1129L27.133 49.5276L25.919 50.1671L27.7342 53.6132L27.2667 53.8594L25.4515 50.4134L24.2375 51.0529ZM30.1362 53.735C30.0608 53.7747 29.9903 53.8039 29.9246 53.8224C29.8596 53.8422 29.8127 53.8524 29.7842 53.853L29.6907 53.4013C29.8134 53.3721 29.9142 53.3318 29.9932 53.2806C30.0721 53.2293 30.1261 53.1535 30.1551 53.0532C30.1861 52.9534 30.1898 52.8157 30.1664 52.6402L30.1302 52.3703L27.5262 50.0237L28.0088 49.7695L30.0236 51.6559L30.0537 51.64L29.6376 48.9115L30.1202 48.6573L30.6388 52.6226C30.6622 52.8013 30.659 52.9612 30.6289 53.1022C30.5995 53.2445 30.5434 53.368 30.4604 53.4727C30.3788 53.5768 30.2707 53.6642 30.1362 53.735ZM32.8046 52.3294L30.7074 48.348L31.1372 48.1216L31.3795 48.5816L31.4323 48.5538C31.4385 48.4863 31.4499 48.3984 31.4667 48.29C31.4841 48.1797 31.5312 48.065 31.6081 47.9458C31.6856 47.8247 31.8186 47.7145 32.0071 47.6152C32.2509 47.4868 32.4979 47.4345 32.7481 47.4584C32.9984 47.4824 33.2345 47.5787 33.4567 47.7475C33.6788 47.9162 33.87 48.1527 34.0302 48.4568C34.1918 48.7634 34.2796 49.0567 34.2938 49.3366C34.3073 49.6153 34.2542 49.8648 34.1343 50.0853C34.0138 50.3045 33.8329 50.4777 33.5916 50.6048C33.4056 50.7028 33.2404 50.7504 33.0961 50.7478C32.9512 50.7439 32.8277 50.7182 32.7256 50.6708C32.623 50.6222 32.5414 50.58 32.4809 50.5445L32.4432 50.5643L33.2495 52.0951L32.8046 52.3294ZM31.9074 49.5654C32.0226 49.7841 32.1562 49.9601 32.3084 50.0935C32.4598 50.2256 32.622 50.3064 32.7948 50.3358C32.9669 50.3639 33.1423 50.3309 33.3207 50.2369C33.5067 50.139 33.6361 50.0082 33.7089 49.8446C33.7823 49.6791 33.8063 49.4963 33.7811 49.296C33.7565 49.0939 33.6899 48.8897 33.5814 48.6836C33.4741 48.48 33.346 48.3131 33.1971 48.1828C33.0488 48.0506 32.8867 47.9699 32.7107 47.9405C32.5353 47.9093 32.3534 47.9433 32.1648 48.0426C31.9839 48.138 31.856 48.2639 31.7811 48.4206C31.7056 48.5759 31.6795 48.7519 31.7027 48.9483C31.7253 49.1436 31.7935 49.3492 31.9074 49.5654ZM36.7133 48.9604C36.4343 49.1073 36.1612 49.1725 35.894 49.156C35.6274 49.1375 35.3808 49.0458 35.1543 48.8809C34.9284 48.7142 34.7373 48.4825 34.5811 48.1859C34.4248 47.8893 34.3412 47.5994 34.3301 47.3163C34.3196 47.0312 34.3783 46.7739 34.5063 46.5444C34.6348 46.3129 34.8298 46.1283 35.0912 45.9906C35.242 45.9112 35.4042 45.8579 35.5777 45.8307C35.7512 45.8035 35.9281 45.8147 36.1083 45.8642C36.2879 45.9125 36.4621 46.0102 36.6311 46.1572C36.8 46.3042 36.9557 46.5128 37.098 46.783L37.1973 46.9715L34.9653 48.1473L34.7627 47.7627L36.5423 46.8253C36.4562 46.6619 36.3468 46.5333 36.2139 46.4396C36.0823 46.3451 35.9372 46.2923 35.7788 46.281C35.6216 46.2691 35.4626 46.3055 35.3017 46.3903C35.1245 46.4836 34.9943 46.6084 34.9112 46.7645C34.8287 46.9188 34.7897 47.0838 34.794 47.2598C34.7984 47.4357 34.8426 47.6034 34.9267 47.763L35.0617 48.0194C35.1769 48.2381 35.3123 48.4036 35.4678 48.5159C35.6239 48.6264 35.7906 48.6854 35.9681 48.6931C36.1449 48.6995 36.3231 48.6554 36.5028 48.5607C36.6197 48.4992 36.7167 48.4272 36.7937 48.3449C36.8713 48.2606 36.9272 48.167 36.9612 48.064C36.9946 47.9597 37.0036 47.8474 36.9884 47.727L37.4817 47.6212C37.5133 47.7908 37.5048 47.9591 37.4562 48.1259C37.407 48.2916 37.32 48.4465 37.1954 48.5909C37.0701 48.7339 36.9094 48.8571 36.7133 48.9604ZM39.4246 44.5845L39.0845 44.9082C39.0243 44.8548 38.9532 44.8096 38.871 44.7726C38.7895 44.7336 38.6964 44.7153 38.5916 44.7175C38.4868 44.7197 38.3697 44.7549 38.2402 44.8231C38.063 44.9164 37.9369 45.0351 37.8618 45.179C37.7873 45.321 37.7828 45.4542 37.8483 45.5786C37.9066 45.6892 37.9928 45.7554 38.107 45.7771C38.2212 45.7988 38.375 45.786 38.5684 45.7387L39.0538 45.6179C39.3458 45.5444 39.5894 45.5389 39.7845 45.6015C39.979 45.6628 40.1295 45.7946 40.2361 45.997C40.3234 46.1629 40.3538 46.3363 40.3271 46.5173C40.3017 46.6977 40.2241 46.8702 40.0941 47.035C39.9642 47.1998 39.7867 47.3414 39.5618 47.4599C39.2664 47.6155 38.9882 47.6802 38.7272 47.6539C38.4661 47.6277 38.2449 47.505 38.0636 47.2858L38.4303 46.9578C38.5526 47.0925 38.6902 47.1693 38.8431 47.1883C38.9973 47.2066 39.1655 47.1678 39.3477 47.0718C39.555 46.9626 39.6965 46.8319 39.7721 46.6797C39.8482 46.5256 39.8535 46.3863 39.788 46.2619C39.735 46.1613 39.6555 46.0957 39.5494 46.0649C39.4426 46.0328 39.3074 46.0382 39.1437 46.0811L38.6015 46.2222C38.3033 46.299 38.0572 46.3043 37.8632 46.2378C37.6699 46.1695 37.5206 46.0354 37.4153 45.8356C37.3293 45.6722 37.299 45.5035 37.3246 45.3295C37.3514 45.1549 37.4257 44.9897 37.5476 44.834C37.6707 44.6776 37.8341 44.5458 38.0376 44.4385C38.3242 44.2876 38.5822 44.2319 38.8118 44.2716C39.0427 44.3105 39.2469 44.4148 39.4246 44.5845ZM42.5389 45.8917C42.2674 46.0347 41.9999 46.0937 41.7363 46.0688C41.4727 46.0439 41.2289 45.9468 41.0048 45.7774C40.7808 45.6081 40.5926 45.3789 40.4403 45.0898C40.2854 44.7957 40.2028 44.5078 40.1924 44.2259C40.1825 43.9421 40.2416 43.6854 40.3695 43.4558C40.498 43.2244 40.693 43.0398 40.9544 42.9021C41.158 42.7948 41.3614 42.7359 41.5645 42.7252C41.7676 42.7146 41.957 42.7496 42.1328 42.8304C42.3086 42.9112 42.4568 43.0355 42.5772 43.2032L42.1323 43.4376C42.0289 43.3235 41.8919 43.2463 41.7214 43.2061C41.5515 43.1639 41.3685 43.1945 41.1725 43.2978C40.999 43.3891 40.8708 43.5145 40.7878 43.6738C40.7053 43.8312 40.6707 44.0108 40.6839 44.2126C40.6976 44.4125 40.7621 44.6217 40.8773 44.8404C40.9951 45.0641 41.1329 45.2404 41.2907 45.3692C41.4497 45.4973 41.6181 45.5732 41.7959 45.5967C41.9749 45.6196 42.1524 45.5847 42.3283 45.4921C42.444 45.4312 42.5383 45.3558 42.6114 45.2659C42.6845 45.176 42.7338 45.0762 42.7594 44.9664C42.7851 44.8565 42.7839 44.7416 42.7559 44.6214L43.2008 44.3871C43.2657 44.5712 43.2846 44.7579 43.2575 44.9472C43.231 45.1346 43.1578 45.3112 43.0381 45.477C42.9189 45.6409 42.7525 45.7792 42.5389 45.8917ZM44.2961 44.889L42.7708 41.9935L43.2006 41.767L43.431 42.2044L43.4612 42.1885C43.4385 42.0174 43.4728 41.8509 43.564 41.6888C43.6552 41.5268 43.7876 41.4001 43.961 41.3087C43.9937 41.2915 44.0349 41.2706 44.0845 41.246C44.1342 41.2215 44.1723 41.2038 44.1987 41.1931L44.4371 41.6455C44.42 41.6497 44.3824 41.6623 44.3244 41.6832C44.267 41.7022 44.2088 41.7273 44.1497 41.7584C44.009 41.8325 43.8988 41.9283 43.8194 42.0456C43.7405 42.161 43.6961 42.2871 43.6863 42.4239C43.6771 42.5588 43.7069 42.6916 43.7758 42.8223L44.741 44.6547L44.2961 44.889ZM46.2712 43.8486L44.746 40.953L45.1908 40.7187L46.7161 43.6142L46.2712 43.8486ZM44.718 40.3513C44.6312 40.3969 44.5409 40.4068 44.447 40.3808C44.3543 40.3542 44.2861 40.2994 44.2424 40.2165C44.1987 40.1335 44.1921 40.0463 44.2225 39.9548C44.2543 39.8626 44.3135 39.7937 44.4002 39.748C44.4869 39.7023 44.5766 39.6928 44.6693 39.7194C44.7633 39.7454 44.8321 39.7999 44.8758 39.8828C44.9195 39.9658 44.9255 40.0533 44.8937 40.1455C44.8633 40.237 44.8047 40.3056 44.718 40.3513ZM48.1029 44.2708L46.0057 40.2894L46.4355 40.063L46.6778 40.523L46.7306 40.4952C46.7368 40.4277 46.7483 40.3398 46.765 40.2314C46.7824 40.1211 46.8295 40.0064 46.9064 39.8872C46.9839 39.7661 47.1169 39.6559 47.3054 39.5566C47.5492 39.4282 47.7963 39.3759 48.0465 39.3999C48.2967 39.4238 48.5329 39.5201 48.755 39.6889C48.9772 39.8577 49.1683 40.0941 49.3285 40.3982C49.4901 40.7049 49.5779 40.9982 49.5921 41.2781C49.6057 41.5567 49.5525 41.8063 49.4326 42.0268C49.3121 42.246 49.1312 42.4191 48.8899 42.5462C48.7039 42.6442 48.5387 42.6919 48.3944 42.6892C48.2495 42.6853 48.126 42.6596 48.024 42.6122C47.9213 42.5636 47.8397 42.5215 47.7792 42.4859L47.7415 42.5058L48.5478 44.0365L48.1029 44.2708ZM47.2057 41.5068C47.3209 41.7255 47.4545 41.9015 47.6067 42.0349C47.7582 42.1671 47.9203 42.2478 48.0931 42.2772C48.2653 42.3053 48.4406 42.2724 48.619 42.1784C48.805 42.0804 48.9344 41.9496 49.0072 41.7861C49.0806 41.6206 49.1047 41.4377 49.0795 41.2375C49.0548 41.0353 48.9883 40.8312 48.8797 40.625C48.7724 40.4214 48.6444 40.2545 48.4955 40.1242C48.3472 39.992 48.185 39.9113 48.009 39.882C47.8336 39.8507 47.6517 39.8848 47.4632 39.9841C47.2822 40.0794 47.1543 40.2054 47.0795 40.362C47.004 40.5174 46.9778 40.6933 47.001 40.8898C47.0236 41.085 47.0918 41.2907 47.2057 41.5068ZM50.4999 37.9221L50.6985 38.2991L49.1979 39.0896L48.9993 38.7125L50.4999 37.9221ZM49.0712 37.7884L49.5161 37.5541L50.9699 40.3139C51.0361 40.4396 51.1039 40.5242 51.1735 40.5679C51.2436 40.6096 51.3132 40.6259 51.3823 40.6168C51.452 40.6058 51.5195 40.5831 51.5848 40.5487C51.6338 40.5229 51.6727 40.4992 51.7015 40.4776C51.7296 40.4548 51.7521 40.4365 51.769 40.4228L52.07 40.7748C52.0458 40.802 52.0096 40.8355 51.9615 40.8752C51.9141 40.9163 51.8489 40.9586 51.766 41.0023C51.6403 41.0685 51.5029 41.1064 51.3538 41.1159C51.2059 41.1247 51.0633 41.0947 50.9259 41.0258C50.7897 40.9563 50.6772 40.8373 50.5885 40.6689L49.0712 37.7884Z" fill="black"/>
<path d="M42.8142 72.107L41.0529 76.0995L40.5851 75.8931L39.7924 71.7986L39.7534 71.7814L38.3705 74.9161L37.8871 74.7028L39.6483 70.7104L40.1162 70.9168L40.9132 75.0225L40.9522 75.0397L42.3385 71.8972L42.8142 72.107ZM43.1858 77.1149C42.8973 76.9876 42.6766 76.8142 42.5235 76.5945C42.3723 76.3741 42.2909 76.1239 42.2793 75.844C42.2696 75.5634 42.3324 75.2697 42.4677 74.963C42.603 74.6563 42.7782 74.4106 42.9931 74.226C43.21 74.0407 43.4481 73.9268 43.7074 73.8844C43.9686 73.8413 44.2344 73.8793 44.5047 73.9986C44.6607 74.0674 44.8032 74.1613 44.9323 74.2804C45.0614 74.3994 45.1626 74.545 45.2358 74.717C45.3095 74.8877 45.3413 75.0849 45.3311 75.3086C45.3209 75.5323 45.2541 75.7839 45.1309 76.0633L45.0449 76.2583L42.7368 75.2401L42.9122 74.8424L44.7524 75.6542C44.827 75.4852 44.8597 75.3196 44.8506 75.1572C44.8428 74.9954 44.7941 74.8489 44.7044 74.7178C44.6161 74.5872 44.4887 74.4853 44.3224 74.4119C44.1392 74.331 43.9605 74.3066 43.7865 74.3385C43.6144 74.3697 43.4608 74.4416 43.3257 74.5544C43.1906 74.6671 43.0866 74.806 43.0138 74.971L42.8968 75.2362C42.7971 75.4623 42.7515 75.6712 42.7601 75.8628C42.7706 76.0538 42.8279 76.2211 42.9322 76.3649C43.037 76.5074 43.1823 76.6196 43.3682 76.7016C43.489 76.7549 43.6056 76.7862 43.718 76.7954C43.8323 76.8039 43.9403 76.7895 44.0422 76.7521C44.1446 76.7135 44.2383 76.6508 44.3231 76.564L44.7126 76.8848C44.5993 77.015 44.4622 77.1128 44.3012 77.1785C44.1409 77.2428 43.9655 77.271 43.7749 77.263C43.5849 77.2537 43.3886 77.2043 43.1858 77.1149ZM46.7367 75.0298L46.914 76.5705L48.1714 75.6627L48.7017 75.8966L47.0743 76.9672L47.3807 78.891L46.8505 78.657L46.6457 77.1787L45.4157 78.0241L44.8855 77.7902L46.4973 76.7127L46.2064 74.7959L46.7367 75.0298ZM50.6604 76.7607L50.4884 77.1506L48.9366 76.466L49.1086 76.0762L50.6604 76.7607ZM49.8774 75.5583L50.3374 75.7612L49.0784 78.6152C49.0211 78.7452 48.9969 78.8509 49.0059 78.9326C49.0168 79.0134 49.0473 79.0781 49.0973 79.1266C49.1492 79.1743 49.209 79.2131 49.2766 79.2429C49.3273 79.2653 49.37 79.281 49.4048 79.2901C49.4401 79.298 49.4684 79.3042 49.4896 79.3089L49.4009 79.7635C49.3645 79.7614 49.3158 79.7539 49.2548 79.741C49.1932 79.7293 49.1195 79.7046 49.0337 79.6667C48.9037 79.6094 48.7887 79.5253 48.6886 79.4143C48.5898 79.304 48.5247 79.1736 48.4932 79.0231C48.4631 78.8732 48.4865 78.7112 48.5633 78.537L49.8774 75.5583ZM53.3834 76.7696L53.8669 76.9829L52.6079 79.8369C52.4955 80.0916 52.3533 80.2873 52.1811 80.4241C52.009 80.5609 51.8175 80.6378 51.6065 80.655C51.3956 80.6722 51.1744 80.6297 50.9431 80.5277C50.7248 80.4314 50.548 80.306 50.4127 80.1516C50.278 79.996 50.1946 79.8225 50.1625 79.6314C50.1304 79.4402 50.1593 79.2426 50.2493 79.0386L50.725 79.2484C50.6751 79.3615 50.6595 79.4726 50.6781 79.5817C50.6986 79.6901 50.7479 79.7895 50.826 79.8799C50.9041 79.9702 51.0062 80.0432 51.1323 80.0988C51.2714 80.1602 51.4025 80.1831 51.5258 80.1676C51.6491 80.1521 51.761 80.099 51.8615 80.0083C51.964 79.9169 52.0516 79.7886 52.1244 79.6236L53.3834 76.7696ZM56.5788 79.3716C56.6425 79.1638 56.6153 78.9685 56.4971 78.786C56.3789 78.6034 56.199 78.4588 55.9572 78.3522C55.7805 78.2742 55.6132 78.2346 55.4554 78.2333C55.299 78.2326 55.1616 78.2659 55.0434 78.3333C54.9265 78.4013 54.8399 78.4989 54.7837 78.6263C54.7367 78.7329 54.7216 78.8357 54.7385 78.9347C54.7572 79.033 54.7957 79.1253 54.8539 79.2115C54.9127 79.2964 54.9791 79.3747 55.0532 79.4461C55.1278 79.5163 55.1978 79.5775 55.2633 79.6297L55.6206 79.9177C55.7125 79.9909 55.8116 80.0796 55.9177 80.1838C56.0252 80.2887 56.119 80.4085 56.1993 80.5433C56.2815 80.6773 56.3325 80.8256 56.3524 80.9881C56.3723 81.1506 56.341 81.3254 56.2585 81.5125C56.1633 81.7283 56.0207 81.8983 55.8309 82.0225C55.6423 82.1474 55.4175 82.2135 55.1564 82.221C54.8967 82.2291 54.6135 82.1655 54.3068 82.0302C54.0209 81.9041 53.7936 81.7487 53.6251 81.5641C53.4579 81.3801 53.3509 81.1792 53.3041 80.9614C53.2587 80.7442 53.2763 80.523 53.357 80.2978L53.8561 80.5179C53.8026 80.6744 53.7982 80.8215 53.843 80.9593C53.8897 81.0963 53.9707 81.219 54.0859 81.3273C54.203 81.4348 54.3409 81.5236 54.4994 81.5935C54.684 81.6749 54.8628 81.7181 55.0361 81.7231C55.2099 81.7268 55.3635 81.6937 55.4968 81.6237C55.6307 81.5523 55.7298 81.4439 55.794 81.2983C55.8525 81.1658 55.8631 81.0416 55.8257 80.9257C55.7883 80.8098 55.7206 80.6993 55.6227 80.594C55.5248 80.4887 55.4142 80.3856 55.2911 80.2847L54.8617 79.9276C54.5894 79.7003 54.3989 79.4634 54.2904 79.2167C54.1818 78.9701 54.1869 78.7123 54.3055 78.4433C54.4041 78.2198 54.5506 78.0515 54.7448 77.9384C54.9409 77.8247 55.162 77.767 55.4081 77.7653C55.656 77.7629 55.9073 77.8178 56.162 77.9302C56.4194 78.0437 56.6277 78.1908 56.7872 78.3713C56.9472 78.5506 57.0507 78.7453 57.0977 78.9555C57.146 79.1662 57.129 79.3737 57.0466 79.578L56.5788 79.3716Z" fill="black"/>
</svg>
