<svg width="66" height="121" viewBox="0 0 66 121" fill="none" xmlns="http://www.w3.org/2000/svg">
<path d="M55.8239 71.4318L10.0852 94.7273V85.6364L45.1705 68.733L44.8864 69.3011V67.8807L45.1705 68.4489L10.0852 51.5455V42.4545L55.8239 65.75V71.4318Z" fill="black"/>
<path d="M11.9882 80.3364L10.1641 76.3723L11.5035 75.7559C11.8132 75.6134 12.0917 75.5494 12.3392 75.5637C12.586 75.5768 12.7993 75.653 12.9791 75.7923C13.1589 75.9316 13.3025 76.118 13.41 76.3516C13.5175 76.5851 13.5651 76.8142 13.5527 77.0388C13.5404 77.2634 13.4592 77.4727 13.3093 77.6668C13.1588 77.8596 12.93 78.0267 12.6228 78.168L11.5389 78.6668L11.3394 78.2332L12.4078 77.7415C12.6195 77.6442 12.7755 77.5348 12.8761 77.4135C12.9779 77.2916 13.0317 77.1605 13.0375 77.0202C13.044 76.878 13.0108 76.7276 12.9377 76.5689C12.8647 76.4102 12.7712 76.2851 12.6572 76.1937C12.5432 76.1023 12.4062 76.0543 12.2462 76.0498C12.0856 76.044 11.8982 76.0903 11.684 76.1889L10.8401 76.5772L12.4683 80.1155L11.9882 80.3364ZM13.0347 77.697L14.8297 79.0288L14.2722 79.2853L12.4927 77.9464L13.0347 77.697ZM16.6558 78.2635C16.3694 78.3953 16.0932 78.4458 15.8272 78.415C15.562 78.3822 15.3207 78.2775 15.1033 78.1008C14.8866 77.9221 14.7082 77.6806 14.5681 77.376C14.428 77.0715 14.3599 76.7776 14.364 76.4942C14.3688 76.209 14.4412 75.9552 14.5812 75.7328C14.722 75.5086 14.9265 75.3347 15.1949 75.2112C15.3498 75.1399 15.5146 75.0954 15.6893 75.0775C15.864 75.0597 16.0401 75.0803 16.2174 75.1394C16.3941 75.1973 16.5629 75.3041 16.7237 75.4599C16.8846 75.6158 17.0288 75.8324 17.1565 76.1099L17.2456 76.3034L14.9538 77.358L14.7721 76.9632L16.5993 76.1223C16.5221 75.9546 16.4197 75.8203 16.292 75.7196C16.1656 75.6183 16.0236 75.5577 15.866 75.538C15.7097 75.5177 15.5489 75.5455 15.3838 75.6215C15.2018 75.7053 15.0652 75.8229 14.9738 75.9744C14.8832 76.124 14.8353 76.2867 14.8303 76.4626C14.8252 76.6385 14.8604 76.8084 14.9358 76.9723L15.057 77.2355C15.1603 77.46 15.2866 77.6325 15.4358 77.7531C15.5858 77.8717 15.7492 77.9396 15.926 77.9567C16.1021 77.9726 16.2825 77.9381 16.467 77.8532C16.587 77.798 16.6877 77.7313 16.769 77.6532C16.8511 77.5732 16.9118 77.4827 16.9513 77.3817C16.9902 77.2793 17.0053 77.1677 16.9965 77.0466L17.4948 76.9674C17.5172 77.1385 17.4997 77.306 17.4423 77.47C17.3843 77.6328 17.2892 77.7829 17.157 77.9203C17.0242 78.0565 16.8571 78.1709 16.6558 78.2635ZM19.4602 76.9824C19.2718 77.0691 19.0845 77.1123 18.8983 77.112C18.7115 77.1104 18.5417 77.0626 18.389 76.9687C18.2358 76.8735 18.1146 76.7291 18.0255 76.5355C17.9471 76.3652 17.9172 76.2117 17.9356 76.075C17.9534 75.937 18.0045 75.8119 18.0888 75.6996C18.1732 75.5873 18.2763 75.4851 18.3981 75.3931C18.5206 75.2992 18.6468 75.2114 18.7765 75.1298C18.9465 75.0234 19.0849 74.9386 19.1919 74.8754C19.2995 74.8102 19.3723 74.7509 19.4102 74.6975C19.4495 74.6434 19.4522 74.5797 19.4183 74.5061L19.4112 74.4906C19.3233 74.2996 19.2028 74.1753 19.0495 74.1176C18.8976 74.0593 18.7165 74.0785 18.5062 74.1753C18.2881 74.2757 18.1391 74.4021 18.0592 74.5546C17.9792 74.7071 17.939 74.8491 17.9386 74.9806L17.4338 75.0253C17.428 74.809 17.4666 74.6209 17.5493 74.4609C17.6327 74.2989 17.742 74.1626 17.8771 74.052C18.013 73.9394 18.1557 73.8487 18.3054 73.7798C18.4009 73.7359 18.5159 73.697 18.6505 73.6633C18.7858 73.6276 18.9275 73.6179 19.0757 73.6341C19.2252 73.6498 19.371 73.7101 19.5131 73.8151C19.6553 73.9201 19.7807 74.0907 19.8894 74.3269L20.7908 76.2857L20.334 76.4959L20.1487 76.0933L20.1255 76.104C20.1242 76.1827 20.1043 76.2755 20.0659 76.3823C20.0275 76.4891 19.9602 76.596 19.8639 76.7028C19.7677 76.8096 19.6331 76.9028 19.4602 76.9824ZM19.341 76.54C19.5217 76.4569 19.6576 76.3513 19.7488 76.2233C19.8413 76.0948 19.8934 75.9598 19.905 75.8184C19.9178 75.6765 19.8957 75.5436 19.8387 75.4197L19.6463 75.0016C19.6377 75.0337 19.6049 75.0746 19.548 75.1243C19.4918 75.172 19.4244 75.2226 19.3457 75.276C19.2678 75.3275 19.1912 75.3768 19.1159 75.4239C19.0414 75.4692 18.9811 75.5063 18.935 75.5354C18.8234 75.6055 18.724 75.6817 18.6368 75.764C18.5503 75.8445 18.4912 75.9335 18.4594 76.031C18.4284 76.1266 18.4396 76.2324 18.493 76.3486C18.566 76.5073 18.68 76.6003 18.8348 76.6275C18.9903 76.6529 19.1591 76.6237 19.341 76.54ZM22.8608 75.4081C22.5821 75.5364 22.3118 75.581 22.0499 75.5421C21.7881 75.5031 21.5498 75.393 21.3351 75.2119C21.1204 75.0308 20.9448 74.7919 20.8082 74.4951C20.6693 74.1931 20.6021 73.9011 20.6068 73.6191C20.6122 73.3352 20.6849 73.082 20.8249 72.8597C20.9657 72.6354 21.1702 72.4615 21.4386 72.338C21.6477 72.2418 21.8539 72.1938 22.0573 72.1941C22.2606 72.1943 22.4479 72.2394 22.6192 72.3295C22.7904 72.4196 22.9317 72.5516 23.043 72.7255L22.5862 72.9357C22.489 72.8163 22.3564 72.7319 22.1883 72.6826C22.0209 72.6314 21.8365 72.6522 21.6352 72.7448C21.4571 72.8267 21.3224 72.945 21.2309 73.0997C21.1402 73.2525 21.096 73.43 21.0983 73.6322C21.1014 73.8325 21.1546 74.0449 21.2579 74.2694C21.3636 74.4991 21.4917 74.6825 21.6424 74.8196C21.7943 74.956 21.9584 75.0408 22.1347 75.0738C22.3122 75.1063 22.4913 75.0809 22.672 74.9978C22.7907 74.9432 22.8889 74.8729 22.9667 74.7871C23.0445 74.7013 23.0991 74.6042 23.1306 74.4959C23.1621 74.3876 23.1671 74.2727 23.1456 74.1513L23.6024 73.9411C23.6573 74.1284 23.6662 74.3159 23.629 74.5035C23.5924 74.6892 23.51 74.8616 23.3815 75.0208C23.2537 75.1781 23.0802 75.3072 22.8608 75.4081ZM24.594 70.9329L24.7721 71.32L23.2314 72.029L23.0533 71.6419L24.594 70.9329ZM23.1746 70.723L23.6314 70.5127L24.9354 73.3464C24.9947 73.4755 25.058 73.5636 25.1251 73.6109C25.1929 73.6564 25.2615 73.6764 25.331 73.671C25.4011 73.6637 25.4698 73.6447 25.5369 73.6138C25.5872 73.5906 25.6273 73.569 25.6572 73.549C25.6865 73.5277 25.7099 73.5107 25.7275 73.4979L26.0092 73.8655C25.9836 73.8914 25.9457 73.9229 25.8955 73.96C25.846 73.9985 25.7786 74.0373 25.6935 74.0765C25.5644 74.1358 25.4252 74.1663 25.2758 74.1678C25.1277 74.1687 24.9869 74.1311 24.8533 74.055C24.721 73.9782 24.6151 73.8534 24.5356 73.6805L23.1746 70.723Z" fill="black"/>
<path d="M12.5158 40.7219L14.3785 36.7758L15.7118 37.4052C16.0214 37.5513 16.2481 37.7266 16.3919 37.9311C16.5375 38.135 16.6133 38.3537 16.6193 38.5874C16.6252 38.8211 16.5733 39.0542 16.4635 39.2867C16.3538 39.5192 16.2065 39.7081 16.0217 39.8534C15.8382 39.9992 15.6215 40.0823 15.3716 40.1025C15.1223 40.1215 14.8442 40.0586 14.5372 39.9137L13.5815 39.4625L13.7816 39.0386L14.7219 39.4825C14.9338 39.5825 15.1213 39.6263 15.2843 39.6137C15.4473 39.6011 15.5871 39.5461 15.7038 39.4488C15.8223 39.3508 15.9188 39.2228 15.9934 39.0648C16.068 38.9068 16.1051 38.7516 16.1049 38.5991C16.1059 38.4472 16.0582 38.3053 15.9618 38.1734C15.866 38.0403 15.7108 37.923 15.4963 37.8218L14.6562 37.4252L12.9937 40.9475L12.5158 40.7219ZM17.0398 42.9327C16.7726 42.8066 16.5682 42.6323 16.4265 42.41C16.2862 42.1882 16.2134 41.9363 16.2083 41.6543C16.2045 41.3729 16.2747 41.0794 16.419 40.7737C16.5646 40.4654 16.7475 40.2226 16.9678 40.0454C17.1893 39.8689 17.4303 39.7643 17.6907 39.7317C17.9524 39.6997 18.2169 39.7468 18.4841 39.8729C18.7513 39.999 18.955 40.173 19.0954 40.3947C19.237 40.6171 19.3095 40.8696 19.3127 41.1523C19.3172 41.4356 19.2467 41.7314 19.1012 42.0397C18.9569 42.3454 18.7742 42.5859 18.5533 42.7612C18.3336 42.9371 18.0929 43.041 17.8312 43.073C17.5708 43.1056 17.307 43.0588 17.0398 42.9327ZM17.2326 42.5242C17.4356 42.62 17.6271 42.6468 17.8072 42.6046C17.9874 42.5624 18.1489 42.4714 18.2919 42.3315C18.4349 42.1917 18.5531 42.0229 18.6464 41.825C18.7398 41.6272 18.7954 41.428 18.8131 41.2275C18.8308 41.0269 18.799 40.8431 18.7176 40.6759C18.6363 40.5087 18.4942 40.3772 18.2913 40.2814C18.0883 40.1856 17.8964 40.1594 17.7157 40.2029C17.535 40.2464 17.3728 40.3387 17.2292 40.4799C17.0856 40.621 16.9671 40.7905 16.8738 40.9883C16.7804 41.1861 16.7252 41.3847 16.7081 41.5839C16.691 41.7832 16.7234 41.9658 16.8053 42.1317C16.8872 42.2976 17.0296 42.4284 17.2326 42.5242ZM22.2846 42.5245L21.8215 42.4473C21.828 42.3671 21.8213 42.283 21.8015 42.1951C21.7836 42.1066 21.7423 42.0211 21.6775 41.9387C21.6128 41.8563 21.5142 41.7839 21.3819 41.7214C21.2008 41.6359 21.0302 41.6064 20.87 41.6329C20.7117 41.6587 20.6026 41.7352 20.5426 41.8624C20.4892 41.9755 20.4882 42.0841 20.5395 42.1884C20.5907 42.2928 20.6934 42.408 20.8475 42.5341L21.2359 42.8494C21.4702 43.0385 21.621 43.2299 21.6883 43.4234C21.7562 43.6157 21.7413 43.8152 21.6437 44.022C21.5636 44.1916 21.4433 44.3201 21.2826 44.4076C21.1232 44.4958 20.9386 44.5374 20.7288 44.5326C20.519 44.5279 20.2992 44.4712 20.0692 44.3627C19.7674 44.2202 19.5484 44.0367 19.4125 43.8123C19.2765 43.5879 19.2416 43.3374 19.3078 43.0608L19.7903 43.1566C19.7562 43.3353 19.7775 43.4914 19.8543 43.6251C19.9323 43.7593 20.0644 43.8703 20.2507 43.9582C20.4626 44.0583 20.6521 44.0928 20.8192 44.0617C20.9881 44.0299 21.1026 43.9504 21.1626 43.8232C21.2111 43.7205 21.2158 43.6174 21.1766 43.5141C21.138 43.4095 21.0524 43.3047 20.9198 43.1997L20.4811 42.8512C20.2403 42.6591 20.0882 42.4655 20.0247 42.2706C19.9631 42.075 19.9805 41.8751 20.0769 41.6709C20.1557 41.5039 20.2724 41.3783 20.4268 41.2941C20.5824 41.2105 20.7591 41.1706 20.9568 41.1744C21.1558 41.1788 21.3594 41.2301 21.5675 41.3283C21.8603 41.4666 22.0599 41.6393 22.1663 41.8466C22.2739 42.0545 22.3134 42.2805 22.2846 42.5245ZM24.623 42.8178L24.4411 43.2031L22.9074 42.4792L23.0893 42.0938L24.623 42.8178ZM23.871 41.5957L24.3257 41.8104L22.9942 44.6312C22.9336 44.7597 22.9067 44.8648 22.9137 44.9466C22.9225 45.0278 22.9513 45.0932 23.0001 45.1429C23.0508 45.192 23.1095 45.2323 23.1763 45.2638C23.2264 45.2874 23.2687 45.3043 23.3032 45.3143C23.3384 45.323 23.3665 45.33 23.3876 45.3353L23.2873 45.7874C23.251 45.7844 23.2025 45.7757 23.1418 45.7611C23.0805 45.7479 23.0075 45.7213 22.9227 45.6813C22.7942 45.6206 22.6814 45.5336 22.5841 45.4202C22.4882 45.3073 22.4264 45.1753 22.3988 45.024C22.3725 44.8734 22.4 44.712 22.4813 44.5399L23.871 41.5957ZM24.5199 47.8206C24.3003 47.7169 24.1248 47.5995 23.9934 47.4684C23.8615 47.3386 23.7644 47.2032 23.7021 47.0623C23.6405 46.9233 23.6031 46.7878 23.59 46.656L24.0723 46.5726C24.0879 46.646 24.1108 46.7322 24.141 46.8313C24.1706 46.9316 24.2279 47.0333 24.3128 47.1362C24.3985 47.241 24.5305 47.3355 24.7091 47.4198C24.948 47.5326 25.1725 47.5679 25.3825 47.5256C25.5925 47.4834 25.7557 47.3389 25.8721 47.0923L26.1559 46.4911L26.1173 46.473C26.0585 46.5111 25.9794 46.5555 25.8801 46.606C25.7828 46.6559 25.6624 46.6847 25.519 46.6924C25.3774 46.6994 25.2103 46.6574 25.0176 46.5665C24.7787 46.4537 24.5909 46.2959 24.4541 46.0931C24.3186 45.891 24.2466 45.6559 24.238 45.388C24.2307 45.1206 24.2998 44.8328 24.4453 44.5245C24.5884 44.2214 24.7663 43.9826 24.979 43.8081C25.1924 43.6323 25.4232 43.5277 25.6715 43.4941C25.9204 43.4592 26.1695 43.5006 26.4187 43.6182C26.6114 43.7092 26.7491 43.8135 26.8318 43.931C26.9164 44.0479 26.9698 44.1611 26.992 44.2705C27.0161 44.3793 27.0327 44.4672 27.0418 44.5344L27.088 44.5562L27.31 44.0861L27.7493 44.2934L26.3123 47.3378C26.1922 47.5921 26.0368 47.7717 25.846 47.8764C25.6559 47.983 25.4463 48.0277 25.2171 48.0107C24.9887 47.9955 24.7563 47.9322 24.5199 47.8206ZM25.2721 46.1871C25.4545 46.2732 25.6284 46.3042 25.7937 46.2801C25.959 46.2561 26.1114 46.1811 26.2508 46.0553C26.3903 45.9295 26.5116 45.7575 26.6147 45.5391C26.7153 45.3259 26.772 45.1225 26.7848 44.9291C26.7976 44.7356 26.7629 44.5629 26.6806 44.411C26.5984 44.2591 26.4648 44.1395 26.2798 44.0522C26.0872 43.9612 25.9035 43.9343 25.729 43.9712C25.5558 44.0088 25.3982 44.0947 25.2564 44.2288C25.1158 44.3635 24.9983 44.5311 24.9037 44.7315C24.8067 44.937 24.753 45.1339 24.7426 45.3222C24.7342 45.5099 24.7723 45.6786 24.857 45.8286C24.9436 45.9779 25.082 46.0974 25.2721 46.1871ZM27.1847 47.6459L28.5817 44.6863L29.021 44.8937L28.81 45.3407L28.8408 45.3553C28.9639 45.2343 29.1176 45.1615 29.3019 45.137C29.4863 45.1125 29.6671 45.1421 29.8444 45.2258C29.8778 45.2416 29.9192 45.2619 29.9687 45.2868C30.0182 45.3118 30.0552 45.3316 30.0796 45.3463L29.8614 45.8087C29.8478 45.7976 29.8152 45.7751 29.7636 45.7414C29.7139 45.7069 29.6588 45.6754 29.5985 45.6469C29.4546 45.579 29.3119 45.5486 29.1703 45.5556C29.0307 45.5619 28.9033 45.6023 28.788 45.6767C28.6747 45.7504 28.5865 45.8541 28.5234 45.9877L27.6394 47.8606L27.1847 47.6459ZM30.3252 49.2037C30.04 49.0691 29.8237 48.89 29.6763 48.6665C29.5308 48.4423 29.4559 48.1902 29.4514 47.9101C29.4489 47.6293 29.5192 47.3373 29.6623 47.0342C29.8054 46.731 29.9867 46.4899 30.2063 46.3108C30.4278 46.1311 30.6687 46.0233 30.9291 45.9876C31.1913 45.9511 31.456 45.996 31.7232 46.1221C31.8774 46.1948 32.0175 46.2924 32.1435 46.4147C32.2695 46.537 32.3669 46.6851 32.4357 46.8589C32.505 47.0314 32.5317 47.2294 32.5158 47.4528C32.4999 47.6762 32.4268 47.926 32.2964 48.2021L32.2055 48.3948L29.9241 47.318L30.1097 46.9249L31.9286 47.7835C32.0074 47.6165 32.0443 47.4517 32.0394 47.2892C32.0357 47.1272 31.9908 46.9795 31.9045 46.8462C31.8195 46.7134 31.6948 46.6082 31.5304 46.5306C31.3493 46.4451 31.1713 46.4161 30.9966 46.4435C30.8237 46.4703 30.6683 46.5383 30.5304 46.6476C30.3924 46.7568 30.2849 46.893 30.2079 47.0561L30.0843 47.3182C29.9787 47.5417 29.9279 47.7493 29.9316 47.9411C29.9372 48.1323 29.9902 48.3011 30.0908 48.4475C30.1919 48.5926 30.3343 48.7085 30.518 48.7952C30.6375 48.8516 30.7532 48.8858 30.8653 48.8979C30.9793 48.9093 31.0877 48.8976 31.1905 48.8629C31.2939 48.8269 31.3891 48.7666 31.4762 48.682L31.8573 49.0127C31.7407 49.1399 31.6011 49.2342 31.4386 49.2957C31.2767 49.3559 31.1006 49.3796 30.9103 49.3668C30.7206 49.3526 30.5256 49.2983 30.3252 49.2037ZM35.452 48.7398L34.9889 48.6625C34.9954 48.5823 34.9887 48.4983 34.9689 48.4104C34.951 48.3219 34.9097 48.2364 34.8449 48.154C34.7801 48.0716 34.6816 47.9991 34.5493 47.9367C34.3682 47.8512 34.1975 47.8217 34.0374 47.8482C33.8791 47.874 33.77 47.9505 33.7099 48.0777C33.6566 48.1907 33.6555 48.2994 33.7068 48.4037C33.7581 48.508 33.8608 48.6233 34.0149 48.7494L34.4033 49.0647C34.6376 49.2538 34.7884 49.4451 34.8556 49.6387C34.9235 49.831 34.9087 50.0305 34.8111 50.2373C34.731 50.4069 34.6107 50.5354 34.45 50.6229C34.2906 50.711 34.106 50.7527 33.8962 50.7479C33.6864 50.7431 33.4665 50.6865 33.2366 50.5779C32.9347 50.4355 32.7158 50.252 32.5798 50.0276C32.4439 49.8032 32.409 49.5527 32.4751 49.2761L32.9577 49.3719C32.9236 49.5506 32.9449 49.7067 33.0217 49.8403C33.0997 49.9745 33.2318 50.0856 33.4181 50.1735C33.63 50.2736 33.8195 50.308 33.9866 50.2769C34.1555 50.2452 34.27 50.1657 34.33 50.0385C34.3785 49.9357 34.3832 49.8327 34.344 49.7294C34.3054 49.6248 34.2198 49.52 34.0871 49.415L33.6484 49.0665C33.4077 48.8743 33.2556 48.6808 33.1921 48.4859C33.1305 48.2903 33.1479 48.0904 33.2443 47.8862C33.3231 47.7192 33.4397 47.5936 33.5941 47.5094C33.7498 47.4258 33.9265 47.3859 34.1242 47.3897C34.3232 47.3941 34.5267 47.4454 34.7348 47.5436C35.0277 47.6819 35.2273 47.8546 35.3337 48.0619C35.4413 48.2698 35.4808 48.4957 35.452 48.7398ZM38.723 49.4732C38.792 49.2671 38.7698 49.0712 38.6563 48.8857C38.5428 48.7002 38.3666 48.5511 38.1277 48.4383C37.953 48.3558 37.7868 48.3119 37.6291 48.3066C37.4727 48.3019 37.3345 48.3317 37.2146 48.396C37.096 48.461 37.0069 48.5564 36.9475 48.6823C36.8978 48.7876 36.8801 48.89 36.8944 48.9895C36.9106 49.0882 36.9468 49.1814 37.0027 49.2691C37.0593 49.3555 37.1237 49.4354 37.1959 49.5088C37.2687 49.5808 37.3372 49.6438 37.4013 49.6976L37.7512 49.9947C37.8412 50.0701 37.9379 50.1614 38.0414 50.2683C38.1461 50.3759 38.2369 50.498 38.3137 50.6348C38.3924 50.7709 38.4396 50.9204 38.4554 51.0834C38.4711 51.2463 38.4354 51.4203 38.3481 51.6053C38.2474 51.8185 38.1006 51.9848 37.9076 52.1042C37.7159 52.2242 37.4894 52.2846 37.2283 52.2854C36.9684 52.2868 36.6869 52.216 36.3838 52.0729C36.1012 51.9395 35.878 51.7784 35.7142 51.5896C35.5518 51.4014 35.4499 51.1978 35.4088 50.9789C35.3689 50.7606 35.3922 50.5399 35.4786 50.3168L35.9719 50.5496C35.9144 50.7047 35.9063 50.8517 35.9475 50.9905C35.9907 51.1287 36.0685 51.2534 36.1809 51.3646C36.2953 51.4751 36.4308 51.5673 36.5875 51.6413C36.7699 51.7274 36.9476 51.7752 37.1207 51.7846C37.2943 51.7927 37.4487 51.7635 37.5838 51.6969C37.7195 51.629 37.8213 51.5231 37.8893 51.3793C37.9511 51.2483 37.9648 51.1244 37.9304 51.0076C37.896 50.8908 37.8312 50.7785 37.736 50.6708C37.6408 50.563 37.5329 50.4571 37.4123 50.3531L36.9923 49.9852C36.7258 49.751 36.5415 49.5093 36.4393 49.26C36.337 49.0107 36.3487 48.7531 36.4742 48.4872C36.5785 48.2662 36.7291 48.1017 36.9262 47.9937C37.1252 47.885 37.3477 47.8329 37.5937 47.8375C37.8416 47.8414 38.0914 47.9028 38.3432 48.0217C38.5975 48.1417 38.8021 48.294 38.9568 48.4786C39.1122 48.6619 39.2107 48.8592 39.2524 49.0705C39.2953 49.2824 39.273 49.4894 39.1854 49.6915L38.723 49.4732ZM40.6437 52.4909L41.1678 52.7383L41.3342 53.5237L41.3771 53.7324L41.6211 54.9126L41.097 54.6652L40.9382 53.8834L40.8995 53.6861L40.6437 52.4909ZM42.8889 52.646C42.6924 53.0622 42.4475 53.3864 42.1541 53.6186C41.8608 53.8508 41.5442 53.9873 41.2046 54.028C40.8649 54.0687 40.5268 54.0097 40.1903 53.8508C39.8537 53.6919 39.5932 53.4684 39.4088 53.1803C39.2243 52.8922 39.1285 52.5611 39.1213 52.187C39.1141 51.8129 39.2088 51.4178 39.4052 51.0016C39.6017 50.5854 39.8466 50.2612 40.14 50.029C40.4334 49.7968 40.7499 49.6603 41.0895 49.6196C41.4292 49.5789 41.7673 49.6379 42.1038 49.7968C42.4404 49.9556 42.7009 50.1791 42.8853 50.4672C43.0698 50.7553 43.1656 51.0864 43.1728 51.4605C43.18 51.8346 43.0853 52.2298 42.8889 52.646ZM42.4265 52.4277C42.5877 52.086 42.6667 51.7706 42.6633 51.4816C42.6613 51.1932 42.5917 50.9428 42.4548 50.7305C42.3191 50.5188 42.1318 50.3566 41.8928 50.2438C41.6539 50.131 41.409 50.0892 41.158 50.1184C40.9083 50.1482 40.6709 50.2537 40.4456 50.4348C40.2216 50.6165 40.0289 50.8782 39.8676 51.2199C39.7064 51.5616 39.6268 51.8766 39.6288 52.1651C39.6322 52.4541 39.7017 52.7045 39.8374 52.9162C39.9744 53.1285 40.1623 53.291 40.4013 53.4038C40.6402 53.5166 40.8845 53.558 41.1342 53.5282C41.3851 53.4991 41.6226 53.3936 41.8466 53.2119C42.0719 53.0308 42.2652 52.7694 42.4265 52.4277ZM42.7611 54.9983L44.6237 51.0522L45.1016 51.2777L43.439 54.7999L45.2733 55.6658L45.0732 56.0897L42.7611 54.9983Z" fill="black"/>
</svg>
